PathFileType	4	(X/Y/Z)	/Users/itak/Documents/Research/Walk-IL/dataset/trc/00315_00010.trc
DataRate	CameraRate	NumFrames	NumMarkers	Units	OrigDataRate	OrigDataStartFrame	OrigNumFrames
100.000000	100.000000	4	53	mm	100.000000	134	537
Frame#	Time	RPSI			LPSI			L3			STRN			T10			C7			CLAV			RBAK			LBAK			LSHO			LUPA			LAEL			LAOL			LWTS			LWPS			LFRA			LIFD			LHPS			LHTS			RSHO			RUPA			RAEL			RAOL			RWTS			RWPS			RFRA			RIFD			RHTS			RHPS			RBHD			LFHD			RFHD			LBHD			LHIP			RHIP			RASI			LASI			LKNE			LTHI			LANK			LTIP			LTOE			LMT1			LMT5			LHEE			RKNE			RTHI			RANK			RTIP			RTOE			RMT1			RMT5			RHEE			
		X1	Y1	Z1	X2	Y2	Z2	X3	Y3	Z3	X4	Y4	Z4	X5	Y5	Z5	X6	Y6	Z6	X7	Y7	Z7	X8	Y8	Z8	X9	Y9	Z9	X10	Y10	Z10	X11	Y11	Z11	X12	Y12	Z12	X13	Y13	Z13	X14	Y14	Z14	X15	Y15	Z15	X16	Y16	Z16	X17	Y17	Z17	X18	Y18	Z18	X19	Y19	Z19	X20	Y20	Z20	X21	Y21	Z21	X22	Y22	Z22	X23	Y23	Z23	X24	Y24	Z24	X25	Y25	Z25	X26	Y26	Z26	X27	Y27	Z27	X28	Y28	Z28	X29	Y29	Z29	X30	Y30	Z30	X31	Y31	Z31	X32	Y32	Z32	X33	Y33	Z33	X34	Y34	Z34	X35	Y35	Z35	X36	Y36	Z36	X37	Y37	Z37	X38	Y38	Z38	X39	Y39	Z39	X40	Y40	Z40	X41	Y41	Z41	X42	Y42	Z42	X43	Y43	Z43	X44	Y44	Z44	X45	Y45	Z45	X46	Y46	Z46	X47	Y47	Z47	X48	Y48	Z48	X49	Y49	Z49	X50	Y50	Z50	X51	Y51	Z51	X52	Y52	Z52	X53	Y53	Z53	

135	1.34	-1111.910278320312	990.1005249023438	-651.85400390625	-1104.278076171875	992.232177734375	-826.8221435546875	-1084.661987304688	1072.529541015625	-745.7257690429688	-805.3417358398438	1218.061401367188	-733.4003295898438	-1078.087890625	1191.679931640625	-751.5276489257812	-997.4910278320312	1427.761474609375	-768.6408081054688	-853.4676513671875	1326.598999023438	-744.5968017578125	-1076.060913085938	1302.25830078125	-693.81591796875	-1007.548767089844	1388.124755859375	-873.38916015625	-913.2222900390625	1380.392822265625	-917.2584838867188	-944.627197265625	1264.374267578125	-993.50146484375	-964.0978393554688	1059.829956054688	-1000.017395019531	-1031.767456054688	1053.025024414062	-946.413818359375	-851.033203125	865.3650512695312	-953.6426391601562	-905.6473999023438	826.6900024414062	-986.0402221679688	-946.7794189453125	954.1375732421875	-1000.514709472656	-802.3704833984375	682.770751953125	-933.7461547851562	-872.8378295898438	747.9839477539062	-971.2190551757812	-812.2659912109375	772.3570556640625	-975.0825805664062	-950.2944946289062	1404.538330078125	-602.4387817382812	-973.020751953125	1350.948120117188	-535.86572265625	-1042.068969726562	1095.399047851562	-479.0801086425781	-1060.201782226562	1088.51904296875	-572.9698486328125	-991.425048828125	851.846923828125	-497.0624084472656	-1054.07275390625	864.6996459960938	-437.5146484375	-1037.887817382812	1027.481811523438	-460.6674499511719	-1025.82666015625	667.9075317382812	-481.8343505859375	-995.8204345703125	737.5961303710938	-464.0278930664062	-1056.937866210938	751.5789184570312	-430.7606506347656	-977.4927368164062	1577.228393554688	-700.4029541015625	-771.4669189453125	1595.59521484375	-749.4193725585938	-805.2484130859375	1588.425048828125	-663.1209716796875	-924.8139038085938	1578.543212890625	-836.5663452148438	-1036.314575195312	942.1157836914062	-922.5728149414062	-1011.297424316406	940.3367309570312	-546.9993286132812	-894.2835083007812	940.36669921875	-617.9478759765625	-897.5255737304688	939.2482299804688	-870.9369506835938	-1019.179870605469	473.2035827636719	-871.8139038085938	-1008.511535644531	614.4993286132812	-898.3896484375	-1159.285888671875	47.71132659912109	-830.29443359375	-1094.686889648438	254.0444793701172	-860.6592407226562	-952.2617797851562	40.15584182739258	-771.499267578125	-1021.979797363281	30.40059661865234	-730.7876586914062	-1035.806274414062	43.24087142944336	-842.9532470703125	-1205.855346679688	44.06144714355469	-770.4760131835938	-812.83056640625	509.0491333007812	-566.6825561523438	-899.6942749023438	754.9400634765625	-546.6976928710938	-988.5643920898438	94.615966796875	-572.6856079101562	-824.8226318359375	383.0555114746094	-574.2145385742188	-808.8622436523438	64.13772583007812	-635.9834594726562	-865.9540405273438	62.81749725341797	-672.4158935546875	-892.3467407226562	58.8163948059082	-551.8069458007812	-1043.4189453125	101.7100067138672	-617.9305419921875	
136	1.35	-1107.91796875	990.2294921875	-651.9620361328125	-1099.81640625	991.9633178710938	-826.859375	-1080.335205078125	1072.295043945312	-746.2545166015625	-800.6531372070312	1217.351196289062	-732.64697265625	-1073.470458984375	1191.471435546875	-752.3507690429688	-992.0695190429688	1427.375366210938	-768.9461669921875	-848.5531616210938	1325.94384765625	-744.0680541992188	-1071.372192382812	1302.080200195312	-694.78125	-1001.704040527344	1387.758422851562	-873.7843017578125	-907.2007446289062	1379.741943359375	-917.0743408203125	-938.4163208007812	1263.700439453125	-993.41650390625	-958.1610717773438	1059.275390625	-999.7642211914062	-1026.13623046875	1052.2998046875	-946.4174194335938	-842.5265502929688	867.11767578125	-953.5181884765625	-897.0090942382812	827.1173706054688	-984.5203857421875	-939.952880859375	953.8189086914062	-999.970458984375	-792.6329956054688	684.2843627929688	-932.3178100585938	-862.4447021484375	749.2116088867188	-969.519775390625	-802.2864990234375	774.6926879882812	-975.1454467773438	-946.095458984375	1404.135375976562	-602.5038452148438	-969.713623046875	1350.783081054688	-536.2013549804688	-1042.637817382812	1096.431640625	-480.6302185058594	-1058.8251953125	1089.4072265625	-574.731689453125	-995.0760498046875	852.2182006835938	-496.4080505371094	-1058.490844726562	866.2100830078125	-438.1875610351562	-1039.700927734375	1028.634521484375	-461.6680908203125	-1032.533569335938	668.7716674804688	-481.6326904296875	-1001.884765625	738.0763549804688	-463.4196166992188	-1063.277099609375	753.0789794921875	-431.2849731445312	-972.218505859375	1576.646362304688	-700.03173828125	-765.9998779296875	1594.715087890625	-748.13623046875	-800.112060546875	1587.386474609375	-661.998046875	-918.96923828125	1578.197143554688	-835.9813842773438	-1031.857299804688	941.4467163085938	-922.3733520507812	-1007.455200195312	940.7978515625	-546.7654418945312	-890.449951171875	940.407958984375	-617.6101684570312	-892.5814208984375	938.5615844726562	-870.6320190429688	-1017.051086425781	472.7307434082031	-871.2971801757812	-1005.601196289062	613.9173583984375	-897.8453369140625	-1159.205932617188	47.81432342529297	-830.2365112304688	-1093.674682617188	253.9968872070312	-860.4030151367188	-952.1903686523438	40.0487174987793	-771.515869140625	-1022.031005859375	30.20291519165039	-730.7552490234375	-1035.737060546875	43.19818115234375	-842.9081420898438	-1205.821899414062	44.25064468383789	-770.4271850585938	-806.9163208007812	510.1040344238281	-566.7047119140625	-895.4227905273438	755.8464965820312	-546.2145385742188	-969.0944213867188	89.52994537353516	-574.5878295898438	-815.3582763671875	383.56787109375	-574.6134033203125	-788.4172973632812	66.11003875732422	-638.6513061523438	-845.5098876953125	63.4537353515625	-674.7067260742188	-871.6349487304688	57.07247543334961	-554.4297485351562	-1024.099853515625	95.30385589599609	-619.7819213867188	
137	1.36	-1103.786499023438	990.2910766601562	-652.0436401367188	-1095.152465820312	991.6559448242188	-826.8655395507812	-1075.838623046875	1071.990112304688	-746.7402954101562	-795.8228149414062	1216.630126953125	-731.8372192382812	-1068.689331054688	1191.197021484375	-753.1165161132812	-986.5447387695312	1426.931884765625	-769.18798828125	-843.5103149414062	1325.2685546875	-743.48095703125	-1066.536987304688	1301.838989257812	-695.70068359375	-995.7462158203125	1387.340576171875	-874.111328125	-901.065185546875	1379.072387695312	-916.8218994140625	-932.0789184570312	1263.01416015625	-993.2742309570312	-952.034423828125	1058.7041015625	-999.4926147460938	-1020.308044433594	1051.526733398438	-946.353515625	-833.6578369140625	869.031982421875	-953.433837890625	-887.9456787109375	827.6868286132812	-983.0009155273438	-932.8511962890625	953.546875	-999.40869140625	-782.505859375	685.9927368164062	-930.9573974609375	-851.6723022460938	750.666015625	-967.879638671875	-791.8956298828125	777.2671508789062	-975.184814453125	-941.7858276367188	1403.696899414062	-602.518310546875	-966.2924194335938	1350.600219726562	-536.4960327148438	-1043.089111328125	1097.54052734375	-482.1863098144531	-1057.300537109375	1090.286499023438	-576.4547119140625	-998.6481323242188	852.7445678710938	-495.5823669433594	-1062.804809570312	867.861572265625	-438.8283996582031	-1041.420043945312	1029.8779296875	-462.650634765625	-1039.074829101562	669.8294677734375	-481.3243713378906	-1007.844177246094	738.7180786132812	-462.6930541992188	-1069.476806640625	754.7486572265625	-431.7465515136719	-966.8897094726562	1575.998657226562	-699.5831909179688	-760.4903564453125	1593.817993164062	-746.7775268554688	-794.9313354492188	1586.31982421875	-660.80615234375	-913.0691528320312	1577.806762695312	-835.3163452148438	-1027.175170898438	940.750732421875	-922.1178588867188	-1003.561828613281	941.169921875	-546.480224609375	-886.4698486328125	940.4139404296875	-617.139892578125	-887.55615234375	937.7984008789062	-870.1513061523438	-1014.806335449219	472.2346801757812	-870.7227172851562	-1002.485412597656	613.2915649414062	-897.2361450195312	-1159.132202148438	47.91724014282227	-830.18603515625	-1092.6083984375	253.9444122314453	-860.1416015625	-952.1221923828125	39.95412826538086	-771.5390625	-1022.095275878906	30.05129432678223	-730.7343139648438	-1035.663452148438	43.14974594116211	-842.8734130859375	-1205.786254882812	44.44292068481445	-770.3854370117188	-801.232421875	510.9196472167969	-566.8052978515625	-891.0792846679688	756.5963745117188	-545.6939086914062	-948.8899536132812	84.33948516845703	-576.3765258789062	-805.9271240234375	383.9700927734375	-574.9823608398438	-767.181640625	68.11639404296875	-640.6175537109375	-824.1467895507812	63.98271942138672	-676.4805908203125	-850.1117553710938	55.64538955688477	-556.7557983398438	-1003.838989257812	88.66083526611328	-621.7197265625	
138	1.37	-1099.513916015625	990.2612915039062	-652.0853271484375	-1090.302124023438	991.2971801757812	-826.8297729492188	-1071.185180664062	1071.60693359375	-747.1748657226562	-790.86181640625	1215.880126953125	-730.9623413085938	-1063.749267578125	1190.849487304688	-753.81884765625	-980.9171142578125	1426.421875	-769.3685302734375	-838.3413696289062	1324.560668945312	-742.8327026367188	-1061.558715820312	1301.5283203125	-696.5724487304688	-989.6702880859375	1386.860107421875	-874.3707885742188	-894.80908203125	1378.367309570312	-916.4998779296875	-925.61279296875	1262.300659179688	-993.0745849609375	-945.72509765625	1058.101928710938	-999.205078125	-1014.289428710938	1050.68994140625	-946.2305297851562	-824.4107666015625	871.125	-953.3817749023438	-878.4369506835938	828.4041137695312	-981.5029907226562	-925.46435546875	953.3165893554688	-998.8353881835938	-771.9295654296875	687.9599609375	-929.67919921875	-840.5238647460938	752.36181640625	-966.3146362304688	-781.1016235351562	780.084228515625	-975.1751708984375	-937.36572265625	1403.213500976562	-602.4801635742188	-962.7581176757812	1350.394775390625	-536.7487182617188	-1043.411254882812	1098.720458984375	-483.7124633789062	-1055.640625	1091.149291992188	-578.1051635742188	-1002.125854492188	853.4219360351562	-494.5736694335938	-1066.990844726562	869.6384887695312	-439.4139404296875	-1043.031860351562	1031.2041015625	-463.5928039550781	-1045.421020507812	671.0656127929688	-480.912841796875	-1013.656799316406	739.5137939453125	-461.846923828125	-1075.503540039062	756.5685424804688	-432.13671875	-961.5081176757812	1575.267578125	-699.0618896484375	-754.9348754882812	1592.904907226562	-745.3447265625	-789.7086181640625	1585.2255859375	-659.5464477539062	-907.112548828125	1577.356201171875	-834.57373046875	-1022.282287597656	940.0213623046875	-921.8019409179688	-999.606201171875	941.4203491210938	-546.1390991210938	-882.3433837890625	940.3515014648438	-616.5410766601562	-882.4918823242188	936.9382934570312	-869.4960327148438	-1012.422973632812	471.7058715820312	-870.10009765625	-999.1572875976562	612.6179809570312	-896.56884765625	-1159.061767578125	48.0213508605957	-830.1417236328125	-1091.468017578125	253.8778533935547	-859.8753662109375	-952.0547485351562	39.86707305908203	-771.5673828125	-1022.160217285156	29.94542121887207	-730.72265625	-1035.5849609375	43.09565353393555	-842.8472900390625	-1205.746704101562	44.63805389404297	-770.3506469726562	-795.7549438476562	511.4855651855469	-566.9685668945312	-886.6536865234375	757.1605834960938	-545.1326904296875	-928.0535888671875	79.21222686767578	-578.0448608398438	-796.5532836914062	384.2893371582031	-575.304931640625	-745.31494140625	70.19530487060547	-641.91015625	-802.0372314453125	64.49357604980469	-677.7711791992188	-827.9605712890625	54.582763671875	-558.7504272460938	-982.7684326171875	81.98257446289062	-623.7034912109375	
